<?xml version="1.0" encoding="utf-8"?>
<!-- Generator: Adobe Illustrator 15.0.2, SVG Export Plug-In  -->
<!DOCTYPE svg PUBLIC "-//W3C//DTD SVG 1.1//EN" "http://www.w3.org/Graphics/SVG/1.1/DTD/svg11.dtd" [
	<!ENTITY ns_flows "http://ns.adobe.com/Flows/1.0/">
]>
<svg version="1.1"
	 xmlns="http://www.w3.org/2000/svg" xmlns:xlink="http://www.w3.org/1999/xlink" xmlns:a="http://ns.adobe.com/AdobeSVGViewerExtensions/3.0/"
	 x="0px" y="0px" width="96px" height="96px" viewBox="0 0 96 96" overflow="visible" enable-background="new 0 0 96 96"
	 xml:space="preserve">
<defs>
</defs>
<g>
	<defs>
		<rect id="SVGID_1_" width="96" height="96"/>
	</defs>
	<clipPath id="SVGID_2_">
		<use xlink:href="#SVGID_1_"  overflow="visible"/>
	</clipPath>
	<path clip-path="url(#SVGID_2_)" fill="#85939E" d="M48,3c24.813,0,45,20.187,45,45c0,24.813-20.187,45-45,45
		C23.187,93,3,72.813,3,48C3,23.187,23.187,3,48,3 M48,0C21.49,0,0,21.49,0,48c0,26.511,21.49,48,48,48s48-21.489,48-48
		C96,21.49,74.51,0,48,0"/>
	<path clip-path="url(#SVGID_2_)" fill="#85939E" d="M63.503,27.329v41.343c0,1.4-0.511,2.61-1.534,3.634
		c-1.021,1.022-2.23,1.535-3.632,1.535H37.664c-1.401,0-2.611-0.513-3.633-1.535c-1.022-1.023-1.534-2.233-1.534-3.634V27.329
		c0-1.4,0.512-2.611,1.534-3.635c1.022-1.022,2.232-1.534,3.633-1.534h20.673c1.401,0,2.61,0.512,3.632,1.534
		C62.992,24.717,63.503,25.929,63.503,27.329 M59.629,62.212V33.789c0-0.35-0.128-0.653-0.386-0.909
		c-0.254-0.255-0.558-0.384-0.906-0.384H37.664c-0.35,0-0.653,0.129-0.909,0.384c-0.255,0.256-0.384,0.559-0.384,0.909v28.423
		c0,0.351,0.129,0.653,0.384,0.907c0.256,0.258,0.559,0.386,0.909,0.386h20.673c0.349,0,0.652-0.128,0.906-0.386
		C59.501,62.865,59.629,62.562,59.629,62.212 M51.878,27.974c0-0.43-0.216-0.645-0.648-0.645h-6.458
		c-0.432,0-0.647,0.215-0.647,0.645c0,0.431,0.215,0.646,0.647,0.646h6.458C51.662,28.62,51.878,28.404,51.878,27.974
		 M50.282,70.953c0.632-0.633,0.947-1.393,0.947-2.281s-0.315-1.648-0.947-2.281c-0.633-0.632-1.393-0.948-2.282-0.948
		c-0.889,0-1.65,0.316-2.282,0.948c-0.631,0.633-0.947,1.393-0.947,2.281s0.316,1.648,0.947,2.281
		c0.632,0.634,1.393,0.949,2.282,0.949C48.89,71.902,49.649,71.587,50.282,70.953"/>
</g>
</svg>
