<?xml version="1.0" encoding="utf-8"?>
<!-- Generator: Adobe Illustrator 15.0.2, SVG Export Plug-In  -->
<!DOCTYPE svg PUBLIC "-//W3C//DTD SVG 1.1//EN" "http://www.w3.org/Graphics/SVG/1.1/DTD/svg11.dtd" [
	<!ENTITY ns_flows "http://ns.adobe.com/Flows/1.0/">
]>
<svg version="1.1"
	 xmlns="http://www.w3.org/2000/svg" xmlns:xlink="http://www.w3.org/1999/xlink" xmlns:a="http://ns.adobe.com/AdobeSVGViewerExtensions/3.0/"
	 x="0px" y="0px" width="96px" height="96px" viewBox="0 0 96 96" overflow="visible" enable-background="new 0 0 96 96"
	 xml:space="preserve">
<defs>
</defs>
<g>
	<defs>
		<rect id="SVGID_1_" width="96" height="96"/>
	</defs>
	<clipPath id="SVGID_2_">
		<use xlink:href="#SVGID_1_"  overflow="visible"/>
	</clipPath>
	<path clip-path="url(#SVGID_2_)" fill="#84929D" d="M48,3c24.813,0,45,20.187,45,45c0,24.813-20.187,45-45,45
		C23.187,93,3,72.813,3,48C3,23.187,23.187,3,48,3 M48,0C21.49,0,0,21.49,0,48c0,26.511,21.49,48,48,48s48-21.489,48-48
		C96,21.49,74.51,0,48,0"/>
	<path clip-path="url(#SVGID_2_)" fill="#84929D" d="M71.435,25.792h-46.87c-1.546,0-2.799,1.252-2.799,2.798v38.82
		c0,1.546,1.253,2.798,2.799,2.798h46.87c1.547,0,2.8-1.252,2.8-2.798V28.59C74.234,27.044,72.981,25.792,71.435,25.792
		 M70.942,67.155H25.058V28.846h45.884V67.155z"/>
	<rect x="49.711" y="40.776" clip-path="url(#SVGID_2_)" fill="#84929D" width="14.688" height="2.683"/>
	<rect x="49.711" y="46.453" clip-path="url(#SVGID_2_)" fill="#84929D" width="14.688" height="2.683"/>
	<rect x="49.711" y="35.099" clip-path="url(#SVGID_2_)" fill="#84929D" width="14.688" height="2.684"/>
	<rect x="30.569" y="57.807" clip-path="url(#SVGID_2_)" fill="#84929D" width="33.831" height="2.684"/>
	<rect x="30.569" y="52.128" clip-path="url(#SVGID_2_)" fill="#84929D" width="33.831" height="2.684"/>
	<path clip-path="url(#SVGID_2_)" fill="#84929D" d="M32.269,49.297c0.352,0,1.411-0.094,2.328-0.094
		c0.871,0,1.458,0.047,1.882,0.047c0.376,0,0.706-0.118,0.706-0.307c0-0.212-0.212-0.353-0.683-0.47
		c-0.87-0.235-1.105-0.565-1.105-1.035c0-0.471,0.259-1.529,1.011-3.411c0.047-0.07,0.188-0.235,0.259-0.235
		c0.329-0.024,1.458-0.094,3.952-0.07c0.282,0,0.541,0.258,0.564,0.352c0.541,1.505,1.035,2.822,1.082,3.434
		c0.047,0.377,0.024,0.753-0.941,0.988c-0.447,0.094-0.611,0.281-0.611,0.399c0,0.212,0.282,0.354,0.752,0.354
		c0.612,0,1.529-0.047,2.306-0.047c0.729,0,2.493,0.094,3.081,0.094c0.541,0,0.776-0.188,0.776-0.354s-0.212-0.306-0.612-0.423
		c-0.799-0.234-1.317-0.471-2.093-2.376c-0.47-1.176-2.07-5.433-3.364-9.079c-0.305-0.87-0.729-2.07-0.94-2.635
		c-0.188-0.47-0.283-0.517-0.4-0.517c-0.118,0-0.283,0.094-0.424,0.305c-0.164,0.26-0.893,1.13-1.223,1.459
		c-0.07,0.047-0.047,0.118-0.047,0.188c0,0.094-0.094,0.377-0.117,0.424c-0.988,2.328-3.529,9.032-4.093,10.161
		c-0.682,1.388-0.941,1.764-2.141,2.093c-0.494,0.142-0.587,0.306-0.587,0.47C31.587,49.155,31.728,49.297,32.269,49.297
		 M38.69,37.748c0.07-0.188,0.212-0.235,0.259-0.071c0.329,0.776,1.364,3.622,1.717,4.728c0.023,0.094-0.071,0.188-0.094,0.188
		c-0.753,0-2.494,0.024-3.411,0.047c-0.094,0-0.188-0.117-0.165-0.235C37.137,41.841,38.267,38.876,38.69,37.748"/>
</g>
</svg>
