<?xml version="1.0" encoding="utf-8"?>
<!-- Generator: Adobe Illustrator 15.0.2, SVG Export Plug-In  -->
<!DOCTYPE svg PUBLIC "-//W3C//DTD SVG 1.1//EN" "http://www.w3.org/Graphics/SVG/1.1/DTD/svg11.dtd" [
	<!ENTITY ns_flows "http://ns.adobe.com/Flows/1.0/">
]>
<svg version="1.1"
	 xmlns="http://www.w3.org/2000/svg" xmlns:xlink="http://www.w3.org/1999/xlink" xmlns:a="http://ns.adobe.com/AdobeSVGViewerExtensions/3.0/"
	 x="0px" y="0px" width="96px" height="96px" viewBox="0 0 96 96" overflow="visible" enable-background="new 0 0 96 96"
	 xml:space="preserve">
<defs>
</defs>
<g>
	<defs>
		<rect id="SVGID_1_" width="96" height="96"/>
	</defs>
	<clipPath id="SVGID_2_">
		<use xlink:href="#SVGID_1_"  overflow="visible"/>
	</clipPath>
	<path clip-path="url(#SVGID_2_)" fill="#85939E" d="M48,3c24.813,0,45,20.187,45,45c0,24.813-20.187,45-45,45
		C23.187,93,3,72.813,3,48C3,23.187,23.187,3,48,3 M48,0C21.49,0,0,21.49,0,48c0,26.511,21.49,48,48,48s48-21.489,48-48
		C96,21.49,74.51,0,48,0"/>
	<path clip-path="url(#SVGID_2_)" fill="#85939E" d="M68.295,34.673c-0.532-1.464-1.938-2.448-3.494-2.448h-0.022h-3.526H31.221
		c-1.531,0-2.928,0.963-3.474,2.397c-0.162,0.426-0.244,0.87-0.244,1.321v12.369l0.141,2.459c0.594,5.597,3.499,10.485,7.992,13.895
		c0.081,0.062,0.162,0.122,0.244,0.182l0.052,0.036c2.409,1.761,5.106,2.953,8.015,3.54c1.343,0.271,2.716,0.41,4.08,0.41
		c1.26,0,2.526-0.116,3.771-0.349c0.149-0.027,0.298-0.057,0.447-0.089c0.042-0.008,0.086-0.024,0.133-0.047
		c2.784-0.608,5.372-1.771,7.691-3.466l0.051-0.036c0.082-0.06,0.164-0.12,0.245-0.182c4.493-3.409,7.398-8.298,7.991-13.895
		l0.142-2.459V35.943C68.497,35.514,68.444,35.09,68.295,34.673 M59.614,47.558l-9.642,9.248c-0.544,0.522-1.245,0.783-1.946,0.783
		c-0.7,0-1.402-0.261-1.945-0.783l-9.643-9.248c-1.121-1.074-1.158-2.853-0.083-3.973c1.074-1.122,2.853-1.158,3.974-0.084
		l7.697,7.382l7.697-7.382c1.12-1.074,2.898-1.037,3.973,0.083C60.771,44.705,60.734,46.483,59.614,47.558"/>
</g>
</svg>
